<svg width="24" height="24" viewBox="0 0 24 24" xmlns="http://www.w3.org/2000/svg">
<path d="M11.9442 2.04956C17.4839 2.04976 21.9938 6.5596 21.994 12.0994V13.8083C22.4872 14.2478 22.7995 14.8858 22.7996 15.5984V17.9988C22.7996 19.3241 21.7255 20.399 20.4002 20.3992H19.2C17.8745 20.3992 16.7996 19.3243 16.7996 17.9988V15.5984C16.7999 14.2731 17.8747 13.199 19.2 13.199H20.4002C20.4316 13.199 20.4628 13.2017 20.494 13.2029V12.0994C20.4938 7.3896 16.6639 3.54976 11.9442 3.54956C9.6343 3.54956 7.49408 4.43952 5.90411 6.05933C4.30415 7.68929 3.454 9.8595 3.49396 12.1794V13.2039C3.52896 13.2023 3.56405 13.199 3.59943 13.199H4.79962C6.12496 13.199 7.19978 14.2731 7.20001 15.5984V17.9988C7.20001 18.5707 6.99882 19.0952 6.66486 19.5076C6.75512 19.6177 6.84913 19.7261 6.95001 19.8289C7.68503 20.5775 8.62481 21.0535 9.65509 21.2117C9.81652 20.7396 10.264 20.4001 10.7908 20.4001H11.9901C12.6528 20.4001 13.1902 20.9376 13.1902 21.6003C13.1901 22.2629 12.6527 22.7996 11.9901 22.7996H10.7908C10.3013 22.7996 9.87985 22.5069 9.69318 22.0867C8.41598 21.9285 7.24475 21.3567 6.33478 20.4324C6.22036 20.3155 6.1117 20.1939 6.00861 20.0691C5.65327 20.277 5.24104 20.3992 4.79962 20.3992H3.59943C2.27412 20.399 1.20001 19.3241 1.20001 17.9988V15.5984C1.20014 14.8915 1.50758 14.2582 1.99396 13.8191V12.2C1.94396 9.48995 2.9538 6.92952 4.8338 5.00952C6.7138 3.09956 9.23418 2.04956 11.9442 2.04956Z"/>
</svg>
