<svg viewBox="0 0 18 18" fill="#000000" xmlns="http://www.w3.org/2000/svg">
<path d="M11.625 1.5C14.25 1.50002 15.375 3.00002 15.375 5.25V12.75C15.375 15 14.25 16.5 11.625 16.5H6.375C3.75 16.5 2.625 15 2.625 12.75V5.25C2.625 3 3.75 1.5 6.375 1.5H11.625ZM9 9C7.34308 9 6 10.3431 6 12C6 13.6569 7.34308 15 9 15C10.6569 15 12 13.6569 12 12C12 11.9215 11.9948 11.8382 11.9902 11.7598C11.8747 10.2969 10.7031 9.12428 9.24023 9.00879C9.16179 9.00417 9.07844 9 9 9ZM9.40625 11.5938L10.1533 12L9.40625 12.4063L9 13.1543L8.59375 12.4063L7.8457 12L8.59375 11.5938L9 10.8457L9.40625 11.5938ZM13.1846 3.21484C12.9971 2.96744 12.6375 2.92928 12.3975 3.12402L10.0498 4.99902C9.4798 5.45652 8.51238 5.45652 7.94238 4.99902L5.59473 3.12402C5.35473 2.92921 5.00256 2.97491 4.80762 3.21484C4.61273 3.45484 4.6575 3.80699 4.89746 4.00195L7.24512 5.87695C7.73259 6.27432 8.37011 6.46973 9 6.46973C9.62985 6.46968 10.2671 6.27431 10.7471 5.87695L13.0947 4.00195C13.3422 3.8145 13.3794 3.45484 13.1846 3.21484Z"/>
</svg>
