<?xml version="1.0" encoding="UTF-8"?>
<svg width="17px" height="17px" viewBox="0 0 36 36" version="1.1" xmlns="http://www.w3.org/2000/svg" xmlns:xlink="http://www.w3.org/1999/xlink">
    <title>编组</title>
    <defs>
        <polygon id="path-1" points="-3.55271368e-15 0 12.812 0 12.812 5.4018 -3.55271368e-15 5.4018"></polygon>
    </defs>
    <g id="页面-1" stroke="none" stroke-width="1">
        <g id="编组">
            <path d="M35.9579,17.1699 C35.7889,13.4689 34.5089,10.0659 32.4339,7.2779 L30.1119,14.2469 L35.9579,17.1699 Z" id="Fill-1"></path>
            <path d="M17.9999,10.2227 L25.5839,14.9627 L29.1119,14.0807 L31.6939,6.3357 C30.0239,4.3767 27.9409,2.7897 25.5799,1.6917 L17.9999,6.5957 L17.9999,10.2227 Z" id="Fill-3"></path>
            <g transform="translate(11.6576, 0)">
                <mask id="mask-2" fill="white">
                    <use xlink:href="#path-1"></use>
                </mask>
                <g id="Clip-6"></g>
                <path d="M12.812,1.2178 C10.802,0.4428 8.626,-0.0002 6.342,-0.0002 C4.107,-0.0002 1.976,0.4268 -3.55271368e-15,1.1708 L6.346,5.4018 L12.812,1.2178 Z" id="Fill-5" mask="url(#mask-2)"></path>
            </g>
            <polygon id="Fill-7" points="12.0609 15.6836 13.8909 22.9996 22.1529 22.9996 24.8879 15.7066 17.5419 11.1166"></polygon>
            <path d="M29.4423,15.0303 L25.8763,15.9223 L23.0643,23.4203 L25.7503,27.0003 L33.5723,27.0003 C35.0593,24.4323 35.9323,21.4693 35.9843,18.3013 L29.4423,15.0303 Z" id="Fill-9"></path>
            <path d="M11.4081,14.9248 L17.0001,10.2658 L17.0001,5.9348 L10.5451,1.6308 C7.9941,2.7948 5.7601,4.5258 4.0151,6.6778 L6.8741,13.1118 L11.4081,14.9248 Z" id="Fill-11"></path>
            <path d="M13.7499,24 L10.9999,27.667 L10.9999,34.588 C13.1519,35.497 15.5169,36 17.9999,36 C20.4829,36 22.8479,35.497 24.9999,34.588 L24.9999,27.667 L22.2499,24 L13.7499,24 Z" id="Fill-13"></path>
            <path d="M25.9999,34.1064 C28.8189,32.7044 31.2249,30.5984 32.9649,28.0004 L25.9999,28.0004 L25.9999,34.1064 Z" id="Fill-15"></path>
            <path d="M3.3285,7.5957 C1.5775,10.0607 0.4195,12.9757 0.0955,16.1437 L5.8495,13.2667 L3.3285,7.5957 Z" id="Fill-17"></path>
            <path d="M9.9999,34.1064 L9.9999,28.0004 L3.0349,28.0004 C4.7749,30.5984 7.1809,32.7044 9.9999,34.1064" id="Fill-19"></path>
            <path d="M11.077,15.8691 L6.523,14.0481 L0.035,17.2911 C0.026,17.5281 0,17.7611 0,18.0001 C0,21.2821 0.892,24.3501 2.428,27.0001 L10.25,27.0001 L12.957,23.3901 L11.077,15.8691 Z" id="Fill-21"></path>
        </g>
    </g>
</svg>