<svg
    xmlns="http://www.w3.org/2000/svg"
    width="24"
    height="24"
    viewBox="0 0 24 24"
    fill='currentColor'
  >
    <path
      d="M12 1.03418C17.9416 1.03427 22.7586 5.85135 22.7588 11.793C22.7588 17.7347 17.9417 22.5517 12 22.5518C6.05818 22.5518 1.24121 17.7348 1.24121 11.793C1.24138 5.85129 6.05828 1.03418 12 1.03418ZM12 3C7.02944 3 3 7.02944 3 12C3 16.9706 7.02944 21 12 21C16.9706 21 21 16.9706 21 12C21 7.02944 16.9706 3 12 3Z"
    />
    <path
      d="M12 19.5C7.86349 19.5 4.5 16.1365 4.5 12C4.5 7.86349 7.86349 4.5 12 4.5C16.1365 4.5 19.5 7.86349 19.5 12C19.5 16.1365 16.1365 19.5 12 19.5Z"
      fill-opacity="0.5"
    />
    <path
      d="M15.7863 10.5137H13.3173V8.04478C13.3173 7.32064 12.7242 6.72754 12.0001 6.72754C11.276 6.72754 10.6829 7.32064 10.6829 8.04478V11.831C10.6829 12.5551 11.276 13.1482 12.0001 13.1482H15.7863C16.5104 13.1482 17.1036 12.5551 17.1036 11.831C17.1036 11.1068 16.5104 10.5137 15.7863 10.5137Z"
    />
</svg>